<svg width="280" height="113" viewBox="0 0 280 113" fill="none" xmlns="http://www.w3.org/2000/svg">
<path d="M11.8837 38.136H14.632C16.903 38.136 21.8488 37.9988 25.834 35.1133C29.4752 32.5022 31.5374 27.8289 31.5374 22.9508C31.5374 18.1403 29.5448 13.467 25.9016 10.7168C22.1928 7.97038 17.6548 7.69593 14.632 7.69593H11.8837V38.136ZM14.9065 -9.15528e-05C21.2999 -9.15528e-05 26.8641 0.686016 31.951 4.46445C37.5153 8.65649 40.7467 15.3224 40.7467 22.9508C40.7467 30.5791 37.5848 37.1755 31.5374 41.4351C26.178 45.2136 21.1607 45.832 14.7712 45.832H2.95078V-9.15528e-05H14.9065Z" fill="#1D1D1B"/>
<path d="M54.8919 30.9207C54.8919 35.6635 58.3282 39.3743 63.1406 39.3743C67.9492 39.3743 71.3855 35.6635 71.3855 30.9207C71.3855 26.1817 67.9492 22.5386 63.1406 22.5386C58.3282 22.5386 54.8919 26.1817 54.8919 30.9207ZM70.5603 16.0795H78.9444V45.8334H70.5603V41.9854C67.5375 46.3147 63.5504 46.7959 61.4205 46.7959C52.2808 46.7959 46.2353 39.6507 46.2353 30.9207C46.2353 22.125 52.2112 15.115 61.0089 15.115C63.2759 15.115 67.7443 15.5286 70.5603 19.9275V16.0795Z" fill="#1D1D1B"/>
<path d="M165.123 96.2539H156.741V66.5H165.123V96.2539ZM160.933 48.9085C163.681 48.9085 165.946 51.1756 165.946 53.9258C165.946 56.6741 163.681 58.9412 160.933 58.9412C158.182 58.9412 155.914 56.6741 155.914 53.9258C155.914 51.1756 158.182 48.9085 160.933 48.9085Z" fill="#1D1D1B"/>
<path d="M182.917 75.0218C181.542 76.2587 180.236 78.2513 180.236 81.3436C180.236 83.9547 181.196 85.8797 182.435 87.1843C184.223 89.1092 186.492 89.7973 188.483 89.7973C190.545 89.7973 192.605 89.0397 194.051 87.7332C195.767 86.1541 196.73 83.7499 196.73 81.3436C196.73 78.5238 195.493 76.6027 194.323 75.3658C192.677 73.6476 190.752 72.9615 188.483 72.9615C185.804 72.9615 183.949 74.0593 182.917 75.0218ZM195.767 66.5024H204.151V94.8803C204.151 99.4163 203.739 104.157 200.029 107.868C197.968 109.93 194.391 112.06 188.278 112.06C182.503 112.06 179.07 110.342 177.145 108.626C174.809 106.631 173.023 103.127 172.333 99.7604H181.405C181.749 101.135 182.503 102.509 183.467 103.332C185.116 104.845 187.387 104.913 188.552 104.913C190.958 104.913 192.538 104.09 193.639 103.059C195.56 101.202 195.767 98.8675 195.767 96.4612V92.2711C192.882 96.668 188.896 97.2169 186.629 97.2169C182.642 97.2169 179.206 95.9819 176.32 93.1641C174.119 90.9646 171.581 87.1166 171.581 81.3436C171.581 76.6723 173.297 72.3411 176.183 69.5232C178.794 66.9817 182.435 65.538 186.421 65.538C191.987 65.538 194.6 68.5607 195.767 70.3485V66.5024Z" fill="#1D1D1B"/>
<path d="M212.115 66.5014H220.497V70.3475C222.078 68.15 224.895 65.537 229.706 65.537C232.317 65.537 236.165 66.2946 238.502 69.1802C240.564 71.7217 240.836 74.6768 240.836 77.5642V96.2554H232.452V80.0381C232.452 78.3876 232.385 75.7784 230.875 74.1955C229.569 72.8233 227.781 72.6841 226.958 72.6841C224.758 72.6841 223.04 73.4398 221.803 75.2972C220.566 77.2202 220.497 79.35 220.497 81.0682V96.2554H212.115V66.5014Z" fill="#1D1D1B"/>
<path d="M255.947 81.3431C255.947 86.0859 259.384 89.7967 264.196 89.7967C269.005 89.7967 272.441 86.0859 272.441 81.3431C272.441 76.6041 269.005 72.9609 264.196 72.9609C259.384 72.9609 255.947 76.6041 255.947 81.3431ZM271.616 66.5018H280V96.2558H271.616V92.4078C268.593 96.7371 264.606 97.2183 262.476 97.2183C253.336 97.2183 247.291 90.0731 247.291 81.3431C247.291 72.5473 253.267 65.5374 262.065 65.5374C264.332 65.5374 268.8 65.951 271.616 70.3498V66.5018Z" fill="#1D1D1B"/>
<path d="M88.382 44.8705C87.3403 43.8269 85.8985 41.9038 85.8985 39.0164C85.8985 36.127 87.3403 34.202 88.382 33.1584C90.307 31.2334 92.4736 30.671 94.2381 30.671C96.2443 30.671 98.407 31.475 100.175 33.2376C101.54 34.604 102.502 36.3686 102.502 39.0164C102.502 41.6622 101.54 43.4268 100.094 44.8705C98.407 46.5559 96.3254 47.3579 94.2381 47.3579C92.4736 47.3579 90.307 46.7955 88.382 44.8705Z" fill="#E36000"/>
<path d="M137.951 43.6735C137.344 42.1544 136.432 40.7339 134.913 39.4177C132.785 37.6938 130.555 36.9845 127.615 36.9845C121.336 36.9845 118.092 40.7339 118.092 45.0902C118.092 47.1176 118.802 50.6622 125.387 53.2965L132.178 56.0332C144.638 61.0988 148.082 68.1918 148.082 75.8898C148.082 88.7577 138.962 97.5728 126.301 97.5728C118.5 97.5728 113.837 94.6351 110.391 90.7851C106.746 86.7322 105.124 82.2735 104.722 77.6138L114.954 75.3834C114.954 78.727 116.169 81.8696 117.789 83.9955C119.712 86.4288 122.549 88.0484 126.604 88.0484C132.885 88.0484 137.748 83.4911 137.748 76.7015C137.748 69.8114 132.48 66.9761 128.021 65.1517L121.539 62.415C115.965 60.0861 107.76 55.4263 107.76 45.2951C107.76 36.1747 114.851 27.462 127.514 27.462C134.808 27.462 138.962 30.1987 141.092 32.0232C142.916 33.6428 144.839 35.9736 146.258 38.8089L137.951 43.6735Z" fill="#1D1D1B"/>
<path d="M0.45163 69.9826H2.95448V70.9895C3.89957 69.799 5.07079 69.6966 5.60228 69.6966C7.47121 69.6966 8.18824 70.8658 8.41244 71.3162C8.84536 70.6185 9.72668 69.6966 11.267 69.6966C12.6431 69.6966 13.3176 70.3324 13.6675 70.7827C14.2434 71.5442 14.2821 72.3018 14.2821 73.2875V78.8692H11.7792V74.0258C11.7792 72.9802 11.5531 72.5086 11.3675 72.2806C11.0409 71.8728 10.5887 71.8303 10.3413 71.8303C9.66676 71.8303 9.23384 72.1376 8.96712 72.6091C8.63856 73.1445 8.61923 73.8615 8.61923 74.335V78.8692H6.11638V74.0258C6.11638 72.9802 5.88833 72.5086 5.70472 72.2806C5.37616 71.8728 4.92391 71.8303 4.68039 71.8303C4.00201 71.8303 3.56908 72.1376 3.3043 72.6091C2.97574 73.1445 2.95448 73.8615 2.95448 74.335V78.8692H0.45163V69.9826Z" fill="#E36000"/>
<path d="M23.0854 73.2456C22.8805 72.0357 21.8949 71.4598 20.971 71.4598C20.0491 71.4598 19.0828 72.057 18.876 73.2456H23.0854ZM25.3814 76.3862C25.1167 77.0433 24.1097 79.1558 21.0116 79.1558C19.5756 79.1558 18.4875 78.7461 17.6062 77.9034C16.6205 76.9815 16.2088 75.8315 16.2088 74.4361C16.2088 72.6716 16.9278 71.5835 17.5656 70.9495C18.6112 69.9213 19.8423 69.6952 20.9092 69.6952C22.7163 69.6952 23.7618 70.4142 24.3784 71.1525C25.3196 72.2812 25.4452 73.6785 25.4452 74.6429V74.8459H18.7948C18.7948 75.3793 18.9397 75.9552 19.2277 76.3456C19.4944 76.7148 20.0491 77.1864 21.0116 77.1864C21.9567 77.1864 22.6737 76.736 23.0854 76.0171L25.3814 76.3862Z" fill="#E36000"/>
<path d="M29.5063 74.4158C29.5063 75.8306 30.5326 76.9399 31.9685 76.9399C33.4065 76.9399 34.4308 75.8306 34.4308 74.4158C34.4308 73.0011 33.4065 71.913 31.9685 71.913C30.5326 71.913 29.5063 73.0011 29.5063 74.4158ZM34.1854 63.9077H36.6882V78.8688H34.1854V77.7207C33.2828 79.0118 32.0922 79.1548 31.4564 79.1548C28.7274 79.1548 26.9203 77.023 26.9203 74.4158C26.9203 71.7893 28.7061 69.6962 31.3327 69.6962C32.0091 69.6962 33.3427 69.8179 34.1854 71.1322V63.9077Z" fill="#E36000"/>
<path d="M41.5727 78.8677H39.0679V69.9811H41.5727V78.8677Z" fill="#E36000"/>
<path d="M46.4552 72.1168V78.8677H43.9523V72.1168H42.9667V69.9831H43.9523V66.9449H46.4552V69.9831H48.1792V72.1168H46.4552Z" fill="#E36000"/>
<path d="M54.3351 72.0961C53.7398 71.5433 53.1465 71.5008 52.8798 71.5008C52.2825 71.5008 51.9134 71.7888 51.9134 72.2198C51.9134 72.4459 52.0178 72.7938 52.7135 73.0219L53.3088 73.2035C54.0085 73.4297 55.054 73.7795 55.5681 74.4772C55.8329 74.8463 56.0185 75.3798 56.0185 75.9557C56.0185 76.7558 55.7498 77.556 55.0328 78.2112C54.3138 78.8683 53.4538 79.1543 52.3657 79.1543C50.518 79.1543 49.4705 78.273 48.9177 77.6797L50.2319 76.1606C50.7248 76.7346 51.4631 77.1868 52.2014 77.1868C52.901 77.1868 53.4325 76.837 53.4325 76.2224C53.4325 75.6677 52.9822 75.4416 52.6536 75.3179L52.0796 75.115C51.4418 74.8869 50.7035 74.6009 50.1701 74.0462C49.7604 73.6152 49.4917 73.0605 49.4917 72.3435C49.4917 71.4815 49.9034 70.7625 50.4175 70.3315C51.1133 69.7788 52.0178 69.6957 52.7348 69.6957C53.3919 69.6957 54.4375 69.7788 55.5681 70.6388L54.3351 72.0961Z" fill="#E36000"/>
<path d="M60.2852 78.8677H57.7823V69.9811H60.2852V78.8677Z" fill="#E36000"/>
<path d="M62.6642 69.9826H65.169V71.1326C65.6406 70.4754 66.4813 69.6966 67.9192 69.6966C68.6981 69.6966 69.8481 69.9227 70.5438 70.7827C71.1604 71.5442 71.2415 72.4255 71.2415 73.2875V78.8692H68.7406V74.0258C68.7406 73.5349 68.7194 72.7541 68.2671 72.2806C67.8767 71.8728 67.3452 71.8303 67.0978 71.8303C66.4407 71.8303 65.9266 72.0564 65.5594 72.6091C65.1902 73.1851 65.169 73.8209 65.169 74.335V78.8692H62.6642V69.9826Z" fill="#E36000"/>
<path d="M75.7571 74.4158C75.7571 75.8306 76.7834 76.9399 78.2194 76.9399C79.6554 76.9399 80.6817 75.8306 80.6817 74.4158C80.6817 73.0011 79.6554 71.913 78.2194 71.913C76.7834 71.913 75.7571 73.0011 75.7571 74.4158ZM80.4362 69.9822H82.9391V78.8688H80.4362V77.7207C79.5336 79.0118 78.3431 79.1548 77.7072 79.1548C74.9782 79.1548 73.1712 77.023 73.1712 74.4158C73.1712 71.7893 74.957 69.6962 77.5835 69.6962C78.26 69.6962 79.5935 69.8179 80.4362 71.1322V69.9822Z" fill="#E36000"/>
<path d="M7.59359 92.233C7.59359 90.8376 6.52481 89.7089 5.08881 89.7089C3.65474 89.7089 2.58596 90.8376 2.58596 92.233C2.58596 93.5878 3.63155 94.7378 5.08881 94.7378C6.54607 94.7378 7.59359 93.5878 7.59359 92.233ZM8.67977 88.7445C9.56495 89.5446 10.1796 90.7757 10.1796 92.233C10.1796 93.669 9.56495 94.9021 8.67977 95.7022C7.92215 96.398 6.77219 96.9527 5.08881 96.9527C3.40736 96.9527 2.2574 96.398 1.49978 95.7022C0.616532 94.9021 0 93.669 0 92.233C0 90.7757 0.616532 89.5446 1.49978 88.7445C2.2574 88.0468 3.40736 87.494 5.08881 87.494C6.77219 87.494 7.92215 88.0468 8.67977 88.7445Z" fill="#E36000"/>
<path d="M12.1062 87.7805H14.6091V89.114C15.0014 88.3545 15.5329 87.9853 15.7185 87.8829C16.1089 87.6374 16.6017 87.4944 17.197 87.4944C17.626 87.4944 17.9759 87.5949 18.2638 87.6973L17.9372 90.0379C17.6067 89.8117 17.2782 89.7093 16.7641 89.7093C16.2925 89.7093 15.5967 89.8117 15.1039 90.4283C14.6303 91.0235 14.6091 91.7811 14.6091 92.3977V96.667H12.1062V87.7805Z" fill="#E36000"/>
<path d="M22.6325 89.9151V96.666H20.1278V89.9151H19.144V87.7814H20.1278V84.7432H22.6325V87.7814H24.3565V89.9151H22.6325Z" fill="#E36000"/>
<path d="M27.804 92.2127C27.804 93.6275 28.8284 94.7388 30.2663 94.7388C31.7042 94.7388 32.7286 93.6275 32.7286 92.2127C32.7286 90.798 31.7042 89.7099 30.2663 89.7099C28.8284 89.7099 27.804 90.798 27.804 92.2127ZM32.4831 87.781H34.986V96.6676H32.4831V95.5176C31.5786 96.8106 30.3881 96.9536 29.7541 96.9536C27.0252 96.9536 25.2181 94.8199 25.2181 92.2127C25.2181 89.5881 27.0039 87.495 29.6285 87.495C30.3069 87.495 31.6405 87.6168 32.4831 88.931V87.781Z" fill="#E36000"/>
<path d="M39.8681 96.666H37.3632V81.705H39.8681V96.666Z" fill="#E36000"/>
<path d="M45.3287 95.3319L41.1 87.7808H44.0145L46.7647 92.829L49.227 87.7808H52.0584L44.8958 101.366H42.0663L45.3287 95.3319Z" fill="#E36000"/>
<path d="M56.0167 90.3249C55.607 90.6941 55.2165 91.2894 55.2165 92.2132C55.2165 92.994 55.5045 93.568 55.8756 93.9584C56.4071 94.5324 57.0855 94.7373 57.6788 94.7373C58.2973 94.7373 58.9119 94.5112 59.3429 94.1208C59.855 93.6511 60.143 92.9322 60.143 92.2132C60.143 91.3725 59.7719 90.7965 59.424 90.4293C58.9312 89.9152 58.3572 89.7103 57.6788 89.7103C56.8787 89.7103 56.3259 90.0389 56.0167 90.3249ZM59.855 87.7815H62.3579V96.2545C62.3579 97.6112 62.2361 99.026 61.1287 100.133C60.5122 100.75 59.4434 101.388 57.617 101.388C55.8949 101.388 54.8687 100.874 54.2927 100.36C53.595 99.7662 53.0635 98.7187 52.8567 97.7117H55.5683C55.6688 98.1234 55.8949 98.5331 56.1829 98.7805C56.6757 99.2308 57.3503 99.2521 57.7001 99.2521C58.4171 99.2521 58.8906 99.0047 59.2172 98.6974C59.7932 98.1447 59.855 97.4469 59.855 96.728V95.4756C58.9931 96.7898 57.8044 96.9541 57.1261 96.9541C55.9355 96.9541 54.9092 96.583 54.0473 95.7423C53.3921 95.0852 52.6325 93.9372 52.6325 92.2132C52.6325 90.8178 53.1466 89.5248 54.0067 88.6821C54.7856 87.9245 55.8756 87.4935 57.0642 87.4935C58.7244 87.4935 59.5072 88.3961 59.855 88.9295V87.7815Z" fill="#E36000"/>
<path d="M67.8149 95.3319L63.5881 87.7808H66.5026L69.2528 92.829L71.7151 87.7808H74.5446L67.3839 101.366H64.5525L67.8149 95.3319Z" fill="#E36000"/>
<path d="M58.8857 85.8701H56.9916L59.1852 83.3866H61.6436L58.8857 85.8701Z" fill="#E36000"/>
</svg>
