<svg width="571" height="200" viewBox="0 0 571 200" fill="none" xmlns="http://www.w3.org/2000/svg">
<g clip-path="url(#clip0_219_2378)">
<path d="M108 10L14 128H116" stroke="#2F2F2F" stroke-width="18" stroke-linecap="round" stroke-linejoin="round"/>
<path d="M108 10V100V190" stroke="#2F2F2F" stroke-width="18" stroke-linecap="round"/>
</g>
<path d="M296.644 16.2791C298.352 12.2209 301.543 10.7997 305.786 11.3807C308.179 11.7085 309.92 12.5307 311.397 14.488C311.776 14.5687 312.385 14.677 312.737 14.7799C320.276 16.5565 326.414 19.2265 330.886 26.0318C332.248 28.1039 334.203 33.0256 334.472 35.5066C337.379 38.61 340.376 41.1441 343.845 43.5791C344.458 44.0092 345.003 44.4408 345.555 44.9467C348.947 47.2004 350.99 50.0334 353.4 53.2703C361.41 63.9404 366.896 76.2881 369.445 89.3842C373.783 110.856 368.651 134.854 356.532 153.033C354.648 155.859 348.602 164.31 345.839 165.514C343.219 169.069 331.791 178.593 327.815 179.415C321.733 183.749 315.578 186.771 308.128 187.798C307.453 187.891 304.932 188.319 304.396 188.287C304.121 188.568 303.252 189.447 302.912 189.601C298.746 191.492 293.147 191.642 288.601 191.801C287.429 191.842 285.415 191.794 284.376 191.726C282.48 191.865 279.607 191.887 277.761 191.725C254.715 189.875 233.389 178.813 218.604 161.039C203.697 143.399 196.449 120.537 198.469 97.5303C199.674 83.648 204.578 69.7523 212.22 58.1656C215.304 53.4902 217.663 49.9434 222.081 46.2295C224.465 43.7348 226.913 41.7424 229.479 39.4816C230.528 38.5578 230.562 37.0084 232.31 36.1642C232.919 32.9711 234.478 29.1797 236.255 26.4623C241.413 18.5735 248.038 16.3924 256.702 14.4954L257.788 14.3878C258.696 13.4008 259.186 12.779 260.438 12.2061C264.513 10.341 271.31 11.0921 272.229 16.3512C272.381 17.2209 271.525 18.3367 271.675 19.014C272.261 18.4759 272.085 18.4676 272.738 18.4211L272.819 18.4884C273.401 18.9651 273.877 19.3302 274.646 19.4259C280.118 20.106 285.849 19.3834 291.345 20.1516C294.871 20.6443 294.638 19.3902 297.475 18.7927C297.472 18.2135 296.882 16.8884 296.644 16.2791Z" fill="#FFF9F4"/>
<path d="M304.397 188.287C303.374 188.287 298.95 187.614 298.12 187.504C291.826 186.612 286.004 183.662 281.563 179.114C278.352 175.76 276.073 171.531 274.652 167.189C269.585 151.704 278.19 139.116 278.699 124.085C278.76 122.298 278.179 118.082 276.962 116.816C274.198 113.941 270.032 112.41 266.698 109.934C258.471 103.842 251.611 95.8705 246.152 87.2496C244.646 84.8724 241.78 81.6006 243.268 78.7223C243.667 77.9408 244.373 77.3603 245.217 77.1195C246.635 76.7144 248.473 77.1932 249.33 78.2609C251.001 80.4234 252.212 82.9777 253.726 85.2826C259.469 94.0262 271.729 108.914 282.929 108.627C293.558 108.354 304.644 95.0441 310.4 86.8826C312.325 84.1535 313.944 81.0082 315.886 78.3012C317.099 76.7146 318.933 76.4724 320.56 77.4951C324.34 79.8695 321.472 83.3262 319.825 85.9799C314.299 94.9062 307.512 102.822 299.328 109.417C295.999 112.1 290.634 113.828 288.216 117.07C286.254 119.702 285.662 124.763 284.842 127.969C281.963 139.211 277.254 151.157 279.382 162.907C280.493 169.033 283.98 174.472 289.084 178.037C293.469 181.064 297.109 181.888 302.291 182.233C316.207 183.16 329.027 174.039 333.334 160.884C335.008 155.773 336.289 148.976 335.262 143.635C332.662 141.165 331.854 139.016 331.668 135.382C335.141 135.714 338.639 135.083 341.776 133.557C342.104 135.296 342.905 138.908 342.213 140.612C341.859 141.481 341.036 142.265 340.967 143.454C340.819 146.011 341.021 148.677 340.859 151.224C340.385 158.673 338.329 165.406 334.257 171.655C333.417 172.944 327.838 179.342 327.815 179.415C321.734 183.749 315.579 186.771 308.129 187.798C307.454 187.891 305.296 188.287 304.397 188.287Z" fill="#EE7721"/>
<path d="M331.668 135.382C322.235 134.478 314.916 126.752 314.522 117.284C314.129 107.816 320.782 99.5098 330.108 97.8266C339.433 96.1432 348.57 101.599 351.512 110.607C354.454 119.615 350.298 129.412 341.776 133.557C338.639 135.083 335.141 135.714 331.668 135.382Z" fill="#3C3C3C"/>
<path d="M331.265 101.302C339.654 100.08 347.445 105.892 348.663 114.281C349.881 122.671 344.064 130.459 335.673 131.672C327.29 132.883 319.511 127.072 318.294 118.69C317.077 110.307 322.883 102.524 331.265 101.302Z" fill="#FFF9F4"/>
<path d="M332.905 110.467C336.235 110.132 339.217 112.534 339.598 115.859C339.979 119.185 337.618 122.199 334.298 122.626C332.11 122.907 329.94 121.989 328.618 120.222C327.296 118.455 327.028 116.114 327.916 114.094C328.804 112.074 330.71 110.688 332.905 110.467Z" fill="#EE7721"/>
<path d="M332.624 113.484C334.089 113.371 335.37 113.71 336.248 114.997C336.69 115.65 336.848 116.455 336.685 117.227C336.438 118.416 335.551 119.044 334.592 119.648C330.915 120.244 328.691 116.225 332.624 113.484Z" fill="#EE7721"/>
<path d="M222.081 46.2295C222.843 46.6555 224.304 47.2475 224.451 48.1137C224.762 49.9549 221.727 52.5695 220.71 53.8842C218.608 56.6027 216.578 59.2457 214.773 62.1352C204.068 79.3453 200.136 99.9186 203.741 119.863C207.77 141.767 220.4 161.146 238.813 173.675C248.316 180.151 259.088 184.529 270.414 186.518C272.542 186.898 274.686 187.184 276.839 187.375C279.038 187.582 281.36 187.602 283.515 188.034C284.903 188.313 283.984 191.03 284.376 191.726C282.48 191.865 279.607 191.887 277.761 191.725C254.715 189.875 233.389 178.813 218.604 161.039C203.697 143.399 196.449 120.537 198.469 97.5303C199.674 83.648 204.578 69.7523 212.22 58.1656C215.304 53.4902 217.663 49.9434 222.081 46.2295Z" fill="#FECC9F"/>
<path d="M345.556 44.9467C348.947 47.2004 350.99 50.0334 353.401 53.2703C361.41 63.9404 366.896 76.2881 369.446 89.3842C373.784 110.856 368.652 134.854 356.533 153.033C354.648 155.859 348.603 164.31 345.839 165.514C342.126 163.941 344.454 161.314 346.351 159.303C349.156 156.329 351.143 153.498 353.359 150.054C360.931 138.312 365.397 124.839 366.337 110.898C367.631 91.8301 362.241 72.9066 351.095 57.3813C349.415 55.0445 347.443 52.8707 345.569 50.6873C343.502 48.2791 342.942 47.1428 345.556 44.9467Z" fill="#FECC9F"/>
<path d="M232.31 36.1643C232.92 32.9711 234.478 29.1797 236.255 26.4623C241.414 18.5736 248.038 16.3924 256.703 14.4955C256.329 16.7256 256.535 17.1847 257.153 19.3707C250.472 21.1316 243.736 23.0219 240.111 29.4633C232.853 42.3576 239.995 63.6176 246.739 75.591C244.508 76.3139 243.883 76.4328 242.244 78.1781C241.801 76.9066 241.167 75.5059 240.585 74.3039C235.707 64.224 232.369 53.7762 232.029 42.5043C231.993 41.3268 232.598 36.8865 232.31 36.1643Z" fill="#3C3C3C"/>
<path d="M312.737 14.7799C320.276 16.5565 326.414 19.2265 330.886 26.0318C332.248 28.1039 334.203 33.0256 334.472 35.5066C334.366 36.0631 334.521 39.6068 334.533 40.466C334.553 42.5562 334.443 44.6457 334.202 46.7221C332.797 58.2346 328.172 68.1102 323.055 78.3137C321.559 76.5367 320.981 76.2676 318.828 75.6936C323.861 65.9369 327.376 57.7824 329.169 46.7967C331.384 33.2359 326.723 22.0605 311.986 19.9488C312.401 18.2537 312.652 16.5229 312.737 14.7799Z" fill="#3C3C3C"/>
<path d="M296.645 16.2791C296.875 13 301.543 10.7997 305.786 11.3807C308.179 11.7085 309.92 12.5307 311.397 14.488C311.664 16.1876 311.912 17.5358 310.751 19.2151C308.715 22.1578 302.774 21.9482 299.833 20.6428C299.29 20.402 298.375 20 297.476 18.7927C296.645 16.2791 297.476 18.7927 296.645 16.2791Z" fill="#EE7721"/>
<path d="M257.788 14.3878C258.696 13.4008 259.185 12.779 260.437 12.2061C264.513 10.341 271.31 11.0921 272.228 16.3512C272.38 17.221 271.875 18.5 271.875 18.5L271.337 19.0247C271.228 19.1193 271.118 19.2132 271.008 19.3063C268.594 21.3354 265.725 21.8 262.703 21.4723C257.932 20.9549 257.404 18.2302 257.788 14.3878Z" fill="#EE7721"/>
<g clip-path="url(#clip1_219_2378)">
<path d="M518.75 10L424.75 128H526.75" stroke="#2F2F2F" stroke-width="18" stroke-linecap="round" stroke-linejoin="round"/>
<path d="M518.75 10V190" stroke="#2F2F2F" stroke-width="18" stroke-linecap="round"/>
</g>
<defs>
<clipPath id="clip0_219_2378">
<rect width="160" height="196" fill="white" transform="translate(0 2)"/>
</clipPath>
<clipPath id="clip1_219_2378">
<rect width="160" height="196" fill="white" transform="translate(410.75 2)"/>
</clipPath>
</defs>
</svg>
