<svg width="40" height="40" viewBox="0 0 40 40" fill="none" xmlns="http://www.w3.org/2000/svg">
<rect width="40" height="40" rx="20" fill="#E36000"/>
<path d="M19.8957 7.50543C20.3445 7.44703 20.7829 7.87359 21.143 8.12434C21.4853 8.36044 21.8354 8.58481 22.193 8.79708C23.4591 9.54915 24.817 10.1347 26.2329 10.5393C26.682 10.6661 27.1356 10.7756 27.593 10.8678C28.1185 10.9715 29.1611 11.0531 29.5444 11.3051C29.8503 11.5042 30.0647 11.8165 30.1408 12.1735C30.1903 12.4149 30.1726 13.0555 30.172 13.3295L30.1646 15.4542L30.1608 18.492C30.1589 19.0509 30.1743 19.7199 30.1419 20.2669C30.0384 22.3224 29.3906 24.3134 28.2649 26.0364C26.6829 28.4627 24.2524 30.2633 21.7706 31.6854C21.5263 31.8253 20.433 32.4346 20.2025 32.483C19.7947 32.5655 19.4377 32.3302 19.0878 32.1474C18.6034 31.8954 18.1272 31.6282 17.6599 31.3461C14.2652 29.2991 11.1453 26.5948 10.1492 22.5978C9.80914 21.2333 9.82104 20.0666 9.82624 18.6772L9.83326 16.0092L9.83758 13.6398C9.8397 13.2053 9.84076 12.7473 9.8635 12.3134C9.8733 12.1267 9.94847 11.8924 10.0494 11.7336C10.4253 11.1416 10.9276 11.1104 11.5407 11.0208C11.8411 10.9771 12.1405 10.9269 12.4387 10.8702C14.2727 10.5034 16.0346 9.83962 17.6547 8.90506C17.9679 8.72151 18.2756 8.5286 18.5772 8.32664C18.9358 8.08443 19.5216 7.59267 19.8957 7.50543ZM11.2699 12.4859C11.2332 12.906 11.2509 13.5661 11.2494 14.0122L11.2431 16.8293L11.2369 18.9078C11.2344 19.4758 11.2279 19.9869 11.2608 20.5515C11.3897 22.7611 12.218 24.6966 13.6618 26.3751C15.1405 28.0939 17.1128 29.4809 19.0907 30.5734C19.2809 30.6784 19.8705 31.0179 20.0461 31.0335C20.9676 30.5902 22.022 29.956 22.857 29.3827C25.1928 27.7794 27.2054 25.8685 28.1622 23.1421C28.4164 22.4137 28.5891 21.6591 28.6774 20.8927C28.7532 20.2174 28.7477 19.652 28.7496 18.9729L28.7513 16.7638L28.7599 13.9757C28.7608 13.5329 28.7807 12.9241 28.7574 12.4919C28.2748 12.4088 27.8002 12.3466 27.318 12.247C25.4974 11.8793 23.7422 11.2403 22.1112 10.3515C21.6997 10.1256 21.296 9.88531 20.9013 9.63124C20.7646 9.54297 20.0798 9.06815 19.9978 9.03973C19.5492 9.33676 19.1255 9.64487 18.6652 9.92148C16.6296 11.1448 14.3759 12.0047 12.0264 12.3719C11.7757 12.4111 11.5223 12.449 11.2699 12.4859Z" fill="#FEFEFE"/>
<path d="M25.2595 15.5857C25.4825 15.5743 25.6491 15.5822 25.8309 15.7392C25.9853 15.8724 26.0615 16.0517 26.065 16.2546C26.0688 16.4846 25.9933 16.6264 25.8347 16.7853C25.3342 17.2868 24.8308 17.7875 24.3288 18.2874L21.1845 21.4085L19.6229 22.9585C19.3471 23.2326 19.0624 23.5288 18.7687 23.7828C18.544 23.9772 18.1647 23.9835 17.9326 23.7861C17.613 23.5141 17.3166 23.1929 17.0178 22.8922L15.0697 20.9259C14.675 20.5362 13.9322 19.9712 14.4925 19.3727C14.6169 19.2373 14.7916 19.1592 14.9755 19.1568C15.0816 19.1548 15.254 19.188 15.3335 19.2541C15.6764 19.5394 16.0308 19.9239 16.3472 20.2445L18.3531 22.2636C18.467 22.1686 18.6965 21.9285 18.8133 21.8126L19.8653 20.763L23.4181 17.2422L24.4302 16.2351C24.6094 16.0582 24.7977 15.8656 24.9888 15.7022C25.0521 15.6481 25.177 15.6126 25.2595 15.5857Z" fill="#FEFEFE"/>
</svg>
