<svg width="40" height="40" viewBox="0 0 40 40" fill="none" xmlns="http://www.w3.org/2000/svg">
<rect width="40" height="40" rx="20" fill="#E36000"/>
<path d="M19.9223 10.0458C19.9677 9.99678 20.0137 9.94835 20.0602 9.90046C20.8877 9.05596 21.4386 8.46075 22.5472 7.97428C26.1554 6.39089 30.2423 8.98688 30.2503 12.9627C30.2549 14.3188 29.7864 15.6339 28.9251 16.6813C28.6981 16.9575 28.3829 17.2562 28.1251 17.5124L26.992 18.6413L24.265 21.3821L22.383 23.2722C21.7459 23.9145 21.2052 24.6274 20.2586 24.7406C19.2985 24.8553 18.5972 24.467 17.9756 23.7795C17.7317 23.5098 17.4222 23.2225 17.1648 22.9637L14.7201 20.513L12.2737 18.0642C11.715 17.5072 11.0204 16.8813 10.5868 16.2474C10.0524 15.4709 9.71911 14.5738 9.61693 13.6367C9.4618 12.1911 9.83961 10.7061 10.7625 9.57171C11.5821 8.55134 12.7376 7.85534 14.0228 7.60787C14.2583 7.56125 14.5165 7.53815 14.7565 7.51315C14.8013 7.50257 15.0313 7.49932 15.0943 7.50012C16.399 7.5166 17.6593 7.96951 18.6567 8.81299C19.0651 9.15832 19.5389 9.66133 19.9223 10.0458ZM24.0041 19.7415L26.2869 17.4593L27.1862 16.5637C27.6786 16.0741 28.0158 15.7745 28.3749 15.1578C28.7538 14.5032 28.9521 13.7599 28.9502 13.0036C28.9535 11.8979 28.514 10.837 27.7298 10.0576C26.1609 8.5151 23.5256 8.4679 21.9101 9.97426C21.532 10.3268 21.1756 10.7063 20.8072 11.0691C20.38 11.4996 19.9952 12.0382 19.3856 11.4371C18.335 10.4015 17.4009 9.14303 15.8244 8.93739C15.6007 8.90787 15.2891 8.86404 15.0647 8.87799C12.7241 8.89932 10.856 10.6825 10.8857 13.0526C10.8898 13.8687 11.1293 14.6663 11.5754 15.3498C11.9679 15.9557 12.621 16.5392 13.1438 17.0551L14.8364 18.7363L17.4825 21.3894C17.9811 21.8924 18.4783 22.3966 18.9817 22.895C19.2613 23.1716 19.5194 23.4 19.9451 23.3935C20.1506 23.3918 20.3509 23.3292 20.521 23.2139C20.7458 23.0594 21.2699 22.4814 21.4967 22.2554C22.3368 21.4215 23.1726 20.5835 24.0041 19.7415Z" fill="#FEFDFE"/>
<path d="M19.5186 13.1245C20.0743 13.1188 20.7429 13.0222 21.1527 13.4628C21.5561 13.897 21.4928 14.5522 21.4722 15.1013C22.0116 15.1341 22.6729 15 23.0842 15.4094C23.4366 15.76 23.4407 16.162 23.4382 16.6207C23.4354 17.1236 23.4834 17.5023 23.0982 17.8995C22.7082 18.3017 22.0276 18.2173 21.4837 18.218C21.4687 18.9071 21.6066 19.6859 20.8772 20.0691C20.6897 20.1677 20.5479 20.1849 20.3451 20.1987C19.7992 20.2005 19.1578 20.2794 18.7365 19.9033C18.2342 19.4552 18.3869 18.8269 18.3575 18.221C17.8224 18.2221 17.1445 18.3018 16.7505 17.904C16.5069 17.6581 16.3957 17.3197 16.4031 16.9787C16.4151 16.4233 16.3117 15.8666 16.7385 15.4319C17.1417 15.0213 17.8187 15.1072 18.364 15.1089C18.3545 14.2082 18.2698 13.1645 19.5186 13.1245ZM20.3135 19.1871C20.3628 19.169 20.3985 19.164 20.4252 19.1139C20.5956 18.7934 20.2085 17.4854 20.6835 17.2623C21.02 17.1044 22.2941 17.3385 22.4021 17.0918C22.4664 16.9444 22.4391 16.4149 22.4157 16.239C22.2388 15.9591 20.7281 16.3365 20.5393 15.9517C20.3215 15.5081 20.5179 14.7194 20.4334 14.2383C20.4034 14.0668 19.6523 14.1297 19.5011 14.1355C19.4369 14.1784 19.4142 14.1905 19.4002 14.2714C19.3429 14.6034 19.4471 15.5474 19.3615 15.8245C19.3334 15.9156 19.2743 15.9941 19.1944 16.0461C18.9287 16.2196 18.1854 16.105 17.8586 16.1275C17.7 16.1384 17.4901 16.088 17.4402 16.267C17.4081 16.3824 17.3992 16.9653 17.4395 17.1147C17.693 17.3939 19.1195 16.9732 19.3057 17.4016C19.5107 17.8729 19.3028 18.5736 19.4202 19.0773C19.4332 19.1267 19.5036 19.1867 19.5502 19.191C19.7739 19.2118 20.0872 19.1897 20.3135 19.1871Z" fill="#FEFDFE"/>
<path d="M25.8605 23.3995C25.9875 23.2298 26.2361 22.9927 26.3898 22.8376L27.2431 21.9732L28.4982 20.6903C28.7534 20.4296 29.0233 20.1278 29.3138 19.9104C29.7919 19.5523 30.4958 19.4613 31.0649 19.6068C32.5317 19.9749 33.024 21.7846 32.1639 22.9549C31.9365 23.2643 31.5987 23.6062 31.3403 23.8963L29.8984 25.5245C29.57 25.8972 29.2444 26.2724 28.9216 26.6502C28.763 26.8345 28.4289 27.2423 28.2578 27.3841C27.957 27.6333 27.4841 27.9203 27.1481 28.1375L25.2353 29.3823C24.2679 30.0244 23.2971 30.6617 22.3232 31.2941C21.8872 31.5803 21.2376 32.0389 20.8039 32.2805C20.6116 32.3882 20.4006 32.4586 20.182 32.4878C19.5987 32.5605 19.1872 32.2963 18.7283 31.9834C18.5185 31.8404 18.2938 31.6991 18.0803 31.5606C17.1938 30.9863 16.3102 30.4074 15.4297 29.8239L13.1342 28.3255C12.7218 28.058 12.2203 27.7436 11.829 27.4562C11.6033 27.2904 11.1524 26.7431 10.9442 26.5025C10.5612 26.0573 10.1748 25.6149 9.78518 25.1754L8.50593 23.7319C8.32281 23.5262 7.93902 23.1149 7.79861 22.905C7.59634 22.6011 7.46945 22.2534 7.42842 21.8904C7.2953 20.6889 8.02687 19.6875 9.2458 19.5521C10.4113 19.4886 10.709 19.9076 11.4627 20.6696L13.3321 22.568C13.5307 22.7698 13.9637 23.2493 14.1612 23.404C14.7304 23.4058 15.4654 23.3596 15.9887 23.5575C16.2083 23.6411 16.4128 23.7601 16.5941 23.9096C16.743 24.0337 16.9405 24.2381 17.0815 24.3762C17.398 24.686 17.7121 24.9983 18.0238 25.3129L18.8985 26.1807C19.0874 26.3677 19.4027 26.6333 19.5019 26.87C19.6759 27.2848 19.4466 27.7342 18.9802 27.7812C18.5658 27.8229 18.3749 27.5211 18.1071 27.2703C17.3773 26.5335 16.6354 25.7963 15.8976 25.0688C15.2629 24.4202 14.124 25.0606 13.4379 24.5521C13.2368 24.4031 12.9648 24.0806 12.7773 23.8885L10.9734 22.0579C10.6545 21.7337 10.341 21.4025 10.014 21.0871C9.79204 20.8728 9.47211 20.8056 9.18482 20.9198C8.99074 20.995 8.83597 21.1463 8.75661 21.3388C8.67393 21.5481 8.68195 21.7821 8.77874 21.9851C8.87214 22.1846 9.59593 22.9672 9.78514 23.1807L11.5276 25.1528C11.7347 25.3873 11.9398 25.6237 12.1429 25.8617C12.242 25.9771 12.4692 26.2496 12.5792 26.3404C12.8057 26.5269 13.1231 26.7145 13.3764 26.8797L14.896 27.8704L18.596 30.3014C18.9849 30.5559 19.4744 30.8902 19.8849 31.126C19.9477 31.1445 20.0384 31.1661 20.0949 31.1345C20.538 30.8877 21.2119 30.4232 21.6128 30.1588L24.3542 28.3557L26.3473 27.0523C26.6842 26.8335 27.0822 26.5867 27.3994 26.3494C27.5122 26.2648 27.8243 25.8896 27.926 25.7717C28.1968 25.4559 28.47 25.142 28.7454 24.8303C29.2834 24.2271 29.8182 23.6212 30.3495 23.0122C30.6105 22.7157 30.9115 22.4008 31.1494 22.0877C31.5167 21.6042 31.167 20.8687 30.534 20.864C30.3767 20.8637 30.2234 20.9122 30.0954 21.0031C29.9226 21.1267 29.4786 21.5981 29.3099 21.7702L27.8678 23.2384C27.468 23.6047 26.8241 24.3818 26.4062 24.6515C25.9937 24.9176 24.7671 24.5843 24.3003 24.9059C24.0869 25.053 23.8387 25.3207 23.6525 25.5068L22.6937 26.4661L21.9629 27.1977C21.6113 27.5493 21.1809 28.0835 20.6319 27.6103C20.3396 27.3584 20.385 26.8982 20.6494 26.6329C21.2251 26.055 21.8059 25.4762 22.3849 24.8985L23.0033 24.2819C23.3741 23.9105 23.6614 23.639 24.192 23.4971C24.7332 23.3526 25.3042 23.4213 25.8605 23.3995Z" fill="#FEFDFE"/>
</svg>
