<svg width="40" height="40" viewBox="0 0 40 40" fill="none" xmlns="http://www.w3.org/2000/svg">
<rect width="40" height="40" rx="20" fill="#E36000"/>
<path d="M19.4579 7.52337C19.8957 7.47333 20.5494 7.51357 20.9911 7.55166C23.4794 7.78001 25.8346 8.77881 27.7286 10.4089C30.2375 12.5344 31.8117 15.5599 32.112 18.8344C32.1591 19.3966 32.1936 20.0279 32.1695 20.5943C32.0428 23.3684 30.9999 26.0225 29.2037 28.1406C27.5876 30.0548 25.414 31.456 22.9866 32.1057C22.1573 32.328 21.377 32.4214 20.5274 32.4928C17.4721 32.598 14.49 31.5447 12.1785 29.5441C9.63761 27.3495 8.08043 24.2297 7.85407 20.8799C7.45734 15.3445 10.8461 10.0273 16.0823 8.19529C17.2297 7.79386 18.2435 7.61062 19.4579 7.52337ZM20.4929 31.1261C23.4893 30.9928 26.0233 29.6914 28.0388 27.4934C29.9963 25.3232 31.0132 22.4656 30.8668 19.547C30.7335 16.5885 29.5102 13.7967 27.3183 11.7742C25.2103 9.82874 22.4633 8.73552 19.5818 8.87037C19.5618 8.87187 19.5421 8.87337 19.5224 8.87488C16.613 9.01842 13.8848 10.3301 11.9558 12.5127C9.97839 14.7569 8.96168 17.6881 9.12481 20.6749C9.28703 23.6549 10.6377 26.4455 12.8744 28.4218C14.4464 29.8222 16.5188 30.793 18.6112 31.0598C19.2183 31.1372 19.8814 31.1367 20.4929 31.1261Z" fill="#FEFEFE"/>
<path d="M19.6055 12.5012C20.8843 12.4647 21.1883 13.2559 21.6227 14.233C21.8351 14.7027 22.0435 15.1742 22.2475 15.6475C22.3303 15.8377 22.434 16.164 22.606 16.2885C22.9278 16.5213 25.4855 16.5789 26.204 16.9049C26.6379 17.1017 26.9436 17.4411 27.1058 17.8878C27.3243 18.4909 27.1858 19.1467 26.7754 19.6333C26.5613 19.8873 26.2848 20.1111 26.0409 20.3372L24.9974 21.3189C24.8467 21.4605 24.586 21.6424 24.5089 21.836C24.3255 22.2948 25.0563 24.6027 25.0529 25.3342C25.0509 25.5986 24.9915 25.8593 24.8789 26.0983C24.6813 26.5137 24.3014 26.8458 23.8687 26.9971C23.5667 27.0996 23.2414 27.1114 22.933 27.0311C22.5757 26.936 22.2603 26.6985 21.942 26.5292C21.3117 26.1941 20.5595 25.674 19.931 25.3751L19.8985 25.3598C19.5668 25.2734 19.248 25.5934 18.9724 25.7198C18.3318 26.0135 17.17 26.9195 16.513 27.0486C16.0763 27.1363 15.6227 27.0466 15.2523 26.7992C14.2439 26.1167 14.481 25.1033 14.674 24.1279L14.9564 22.6853C14.9997 22.4697 15.0988 22.1504 15.066 21.9452C15.0323 21.7343 14.8193 21.6044 14.6723 21.4647C14.3023 21.107 13.9283 20.7534 13.5505 20.4038C13.2625 20.1362 12.9378 19.8619 12.6952 19.5548C12.2274 18.9627 12.1949 18.1001 12.6271 17.4788C12.8114 17.2165 13.0668 17.0123 13.3632 16.8902C13.6956 16.751 14.114 16.7129 14.4728 16.6629C15.179 16.5647 15.8889 16.4935 16.5952 16.3971C17.0843 16.3303 17.1254 15.9717 17.2935 15.5889L17.7776 14.5108C18.2108 13.5219 18.4215 12.7061 19.6055 12.5012ZM13.8218 18.0886C13.2308 18.5631 13.8966 18.9612 14.2677 19.3084L15.3839 20.3542C15.6245 20.5799 15.9702 20.8872 16.137 21.1641C16.2948 21.4221 16.3735 21.7207 16.3634 22.0233C16.3559 22.2869 16.2451 22.7738 16.1893 23.051C16.0827 23.5748 15.9793 24.0993 15.8791 24.6244C15.8152 24.9545 15.5489 25.7097 16.1469 25.7878C16.2975 25.8075 16.6363 25.5764 16.7847 25.4887L18.3532 24.5662C18.826 24.2895 19.2756 23.9547 19.847 23.9714C20.3969 24.0528 20.6637 24.2666 21.1302 24.5418L22.5254 25.3662C22.8753 25.5725 23.5876 26.1239 23.7734 25.433C23.8096 25.298 23.696 24.8089 23.6657 24.6586L23.3637 23.1751C23.2791 22.7602 23.1375 22.2785 23.1638 21.8533C23.1784 21.6202 23.2557 21.3871 23.3698 21.1841C23.6118 20.7534 24.8802 19.6437 25.2956 19.2619C25.4966 19.0771 25.8012 18.8585 25.9157 18.6108C25.9763 18.4794 25.934 18.3245 25.8453 18.215C25.5388 17.8357 22.473 17.945 21.7929 17.35C21.6734 17.2438 21.5702 17.1204 21.4872 16.9838C21.3465 16.7561 21.1563 16.2977 21.0422 16.0429L20.3587 14.5309C20.201 14.1834 20.1574 13.8372 19.7235 13.7978C19.3409 13.8985 19.18 14.4984 19.0276 14.8425L18.4167 16.2086C18.1531 16.7984 17.9005 17.4695 17.1848 17.6198C16.0882 17.8503 14.9207 17.8936 13.8218 18.0886Z" fill="#FEFEFE"/>
</svg>
