<svg width="36" height="36" viewBox="0 0 36 36" fill="none" xmlns="http://www.w3.org/2000/svg">
<path d="M0 18C0 8.05888 8.05888 0 18 0C27.9411 0 36 8.05888 36 18C36 27.9411 27.9411 36 18 36C8.05888 36 0 27.9411 0 18Z" fill="#E36000"/>
<path d="M22.6666 19.3333C23.6599 18.36 24.6666 17.1933 24.6666 15.6667C24.6666 14.6942 24.2803 13.7616 23.5926 13.0739C22.905 12.3863 21.9724 12 20.9999 12C19.8266 12 18.9999 12.3333 17.9999 13.3333C16.9999 12.3333 16.1733 12 14.9999 12C14.0275 12 13.0948 12.3863 12.4072 13.0739C11.7196 13.7616 11.3333 14.6942 11.3333 15.6667C11.3333 17.2 12.3333 18.3667 13.3333 19.3333L17.9999 24L22.6666 19.3333Z" stroke="white" stroke-width="1.33333" stroke-linecap="round" stroke-linejoin="round"/>
<path d="M12.1467 18H16.3334L16.6667 17.3334L18.0001 20.3334L19.3334 15.6667L20.3334 18H23.8467" stroke="white" stroke-width="1.33333" stroke-linecap="round" stroke-linejoin="round"/>
</svg>
